<svg width="1170" height="225" viewBox="0 0 1170 225" fill="none" xmlns="http://www.w3.org/2000/svg">
  <path
    d="M-1 116.77L8.75 131.047C18.5 145.324 38 173.878 57.5 154.872C77 135.509 96.5 69.478 116 54.933C135.5 40.924 155 78.401 174.5 92.946C194 106.955 213.5 98.032 233 92.946C252.5 88.217 272 88.217 291.5 78.669C311 69.478 330.5 49.847 350 73.94C369.5 98.033 389 164.063 408.5 197.703C428 230.986 447.5 230.986 467 202.432C486.5 173.878 506 116.77 525.5 88.216C545 59.662 564.5 59.662 584 50.116C603.5 40.925 623 21.294 642.5 45.387C662 69.48 681.5 135.511 701 169.151C720.5 202.434 740 202.434 759.5 173.88C779 145.326 798.5 88.218 818 69.212C837.5 49.849 857 69.48 876.5 97.766C896 126.588 915.5 164.066 935 192.887C954.5 221.173 974 240.804 993.5 207.164C1013 173.881 1032.5 88.219 1052 78.671C1071.5 69.48 1091 135.511 1110.5 135.779C1130 135.511 1149.5 69.479 1159.25 35.84L1169 2.554V-26C940.543 -26 812.457 -26 584 -26H-1V116.77Z"
    fill="url(#paint0_linear_226_580)" />
  <defs>
    <linearGradient id="paint0_linear_226_580" x1="584" y1="-26" x2="584" y2="224.888" gradientUnits="userSpaceOnUse">
      <stop stop-color="#836dfd" stop-opacity="0.88" />
      <stop offset="1" stop-color="#8671fd" stop-opacity="0.04" />
    </linearGradient>
  </defs>
</svg>