<svg width="1169" height="243" viewBox="0 0 1169 243" fill="none" xmlns="http://www.w3.org/2000/svg">
<path d="M-1 15C-1 0.0883102 11.0883 -12 26 -12H1142C1156.91 -12 1169 0.0883102 1169 15V216C1169 230.912 1156.91 243 1142 243H26C11.0883 243 -1 230.912 -1 216V15Z" fill="url(#paint0_linear_104_599)"/>
<path d="M1140 -13H28C11.9837 -13 -1 -0.0162582 -1 16V214C-1 230.016 11.9837 243 28 243H1140C1156.02 243 1169 230.016 1169 214V16C1169 -0.0162582 1156.02 -13 1140 -13Z" fill="url(#paint1_linear_104_599)"/>
<path d="M-1 93.4389L8.75 107.716C18.5 121.993 38 150.547 57.5 131.541C77 112.178 96.5 46.1469 116 31.6019C135.5 17.5929 155 55.0699 174.5 69.6149C194 83.6239 213.5 74.7009 233 69.6149C252.5 64.8859 272 64.8859 291.5 55.3379C311 46.1469 330.5 26.5159 350 50.6089C369.5 74.7019 389 140.732 408.5 174.372C428 207.655 447.5 207.655 467 179.101C486.5 150.547 506 93.4389 525.5 64.8849C545 36.3309 564.5 36.3309 584 26.7849C603.5 17.5939 623 -2.03706 642.5 22.0559C662 46.1489 681.5 112.18 701 145.82C720.5 179.103 740 179.103 759.5 150.549C779 121.995 798.5 64.8869 818 45.8809C837.5 26.5179 857 46.1489 876.5 74.4349C896 103.257 915.5 140.735 935 169.556C954.5 197.842 974 217.473 993.5 183.833C1013 150.55 1032.5 64.8879 1052 55.3399C1071.5 46.1489 1091 112.18 1110.5 112.448C1130 112.18 1149.5 46.1479 1159.25 12.5089L1169 -20.7771V-49.3311H-1V93.4389Z" fill="#7258FF"/>
<defs>
<linearGradient id="paint0_linear_104_599" x1="584" y1="-49.3311" x2="584" y2="243" gradientUnits="userSpaceOnUse">
<stop stop-color="#8772FF"/>
<stop offset="1" stop-color="#6246FF"/>
</linearGradient>
<linearGradient id="paint1_linear_104_599" x1="584" y1="-49.3311" x2="584" y2="243" gradientUnits="userSpaceOnUse">
<stop stop-color="#8772FF"/>
<stop offset="1" stop-color="#6246FF"/>
</linearGradient>
</defs>
</svg>
