<svg width="77" height="29" viewBox="0 0 77 29" fill="none" xmlns="http://www.w3.org/2000/svg">
<path d="M46.0674 19.3779C46.0674 19.6416 46.021 19.9272 45.9282 20.2349C45.8354 20.5376 45.6841 20.8208 45.4741 21.0845C45.269 21.3433 44.998 21.5605 44.6611 21.7363C44.3291 21.9121 43.9238 22 43.4453 22H40.0103C39.7466 22 39.4609 21.9536 39.1533 21.8608C38.8506 21.7681 38.5674 21.6191 38.3037 21.4141C38.0449 21.2041 37.8276 20.9331 37.6519 20.6011C37.4761 20.2642 37.3882 19.8564 37.3882 19.3779C37.3882 19.1143 37.4346 18.8286 37.5273 18.521C37.6201 18.2134 37.769 17.9302 37.9741 17.6714C38.1841 17.4077 38.4551 17.188 38.7871 17.0122C39.124 16.8364 39.5317 16.7485 40.0103 16.7485H43.4453V18.5649H40.0103C39.7515 18.5649 39.5513 18.6455 39.4097 18.8066C39.2681 18.9629 39.1973 19.1582 39.1973 19.3926C39.1973 19.6416 39.2778 19.8369 39.439 19.9785C39.605 20.1152 39.8003 20.1836 40.0249 20.1836H43.4453C43.7041 20.1836 43.9043 20.1055 44.0459 19.9492C44.1875 19.793 44.2583 19.5977 44.2583 19.3633V16.7046C44.2583 16.4556 44.1802 16.2578 44.0239 16.1113C43.8726 15.9648 43.6797 15.8916 43.4453 15.8916H39.2632V14.0825H43.4453C43.709 14.0825 43.9922 14.1289 44.2949 14.2217C44.6025 14.3145 44.8857 14.4658 45.1445 14.6758C45.4082 14.8809 45.6279 15.1519 45.8037 15.4888C45.9795 15.8208 46.0674 16.2261 46.0674 16.7046V19.3779ZM56.4238 22.7617C56.4238 23.0889 56.3823 23.3818 56.2993 23.6406C56.2163 23.9043 56.1064 24.1338 55.9697 24.3291C55.833 24.5293 55.6743 24.6978 55.4937 24.8345C55.313 24.9761 55.1226 25.0908 54.9224 25.1787C54.7271 25.2666 54.5293 25.3301 54.3291 25.3691C54.1289 25.4131 53.9385 25.4351 53.7578 25.4351H50.3228V23.5308H53.7578C54.0117 23.5308 54.2021 23.4648 54.3291 23.333C54.4561 23.2012 54.5195 23.0107 54.5195 22.7617V14.0825H56.4238V22.7617ZM53.7578 22H50.3228C50.0493 22 49.7563 21.9536 49.4438 21.8608C49.1362 21.7681 48.8481 21.6167 48.5796 21.4067C48.311 21.1919 48.0889 20.916 47.9131 20.5791C47.7373 20.2373 47.6494 19.8198 47.6494 19.3267V14.0825H49.5537V19.3267C49.5537 19.5757 49.6196 19.7661 49.7515 19.8979C49.8833 20.0298 50.0786 20.0957 50.3374 20.0957H53.7578V22ZM66.8535 19.3267C66.8535 19.6538 66.812 19.9492 66.729 20.2129C66.646 20.4717 66.5361 20.7012 66.3994 20.9014C66.2627 21.0967 66.104 21.2651 65.9233 21.4067C65.7427 21.5435 65.5522 21.6558 65.3521 21.7437C65.1567 21.8315 64.9565 21.8975 64.7515 21.9414C64.5513 21.9805 64.3608 22 64.1802 22H60.7451C60.4814 22 60.1934 21.9536 59.8809 21.8608C59.5684 21.7681 59.2778 21.6167 59.0093 21.4067C58.7456 21.1919 58.5234 20.916 58.3428 20.5791C58.167 20.2373 58.0791 19.8198 58.0791 19.3267V16.7485C58.0791 16.2603 58.167 15.8477 58.3428 15.5107C58.5234 15.1689 58.7456 14.8931 59.0093 14.6831C59.2778 14.4683 59.5684 14.3145 59.8809 14.2217C60.1934 14.1289 60.4814 14.0825 60.7451 14.0825H64.1802C64.6685 14.0825 65.0835 14.1704 65.4253 14.3462C65.7671 14.522 66.043 14.7441 66.2529 15.0127C66.4629 15.2764 66.6143 15.5645 66.707 15.877C66.8047 16.1895 66.8535 16.48 66.8535 16.7485V19.3267ZM64.9492 16.7632C64.9492 16.4995 64.8833 16.3042 64.7515 16.1772C64.6196 16.0503 64.4292 15.9868 64.1802 15.9868H60.7598C60.5059 15.9868 60.313 16.0527 60.1812 16.1846C60.0493 16.3115 59.9834 16.4995 59.9834 16.7485V19.3267C59.9834 19.5757 60.0493 19.7661 60.1812 19.8979C60.313 20.0298 60.5059 20.0957 60.7598 20.0957H64.1802C64.439 20.0957 64.6318 20.0298 64.7588 19.8979C64.8857 19.7661 64.9492 19.5757 64.9492 19.3267V16.7632ZM76.1333 19.3267C76.1333 19.6538 76.0918 19.9492 76.0088 20.2129C75.9258 20.4717 75.8159 20.7012 75.6792 20.9014C75.5425 21.0967 75.3838 21.2651 75.2031 21.4067C75.0225 21.5435 74.832 21.6558 74.6318 21.7437C74.4365 21.8315 74.2363 21.8975 74.0312 21.9414C73.8311 21.9805 73.6406 22 73.46 22H68.3037V20.0957H73.4453C73.7041 20.0957 73.8994 20.0298 74.0312 19.8979C74.1631 19.7661 74.229 19.5757 74.229 19.3267C74.2046 18.8188 73.9482 18.5649 73.46 18.5649H70.5083C70.0884 18.5649 69.7319 18.4917 69.439 18.3452C69.146 18.1987 68.9067 18.0156 68.7212 17.7959C68.5405 17.5762 68.4087 17.3394 68.3257 17.0854C68.2476 16.8315 68.2085 16.5947 68.2085 16.375C68.2085 15.9502 68.2842 15.5938 68.4355 15.3057C68.5869 15.0127 68.7773 14.7759 69.0068 14.5952C69.2363 14.4146 69.4854 14.2852 69.7539 14.207C70.0225 14.124 70.2739 14.0825 70.5083 14.0825H75.1885V15.9868H70.5229C70.4253 15.9868 70.3472 15.999 70.2886 16.0234C70.2349 16.043 70.1934 16.0723 70.1641 16.1113C70.1396 16.1455 70.125 16.1846 70.1201 16.2285C70.1152 16.2676 70.1128 16.3066 70.1128 16.3457C70.1177 16.4238 70.1323 16.4849 70.1567 16.5288C70.1812 16.5728 70.2104 16.6045 70.2446 16.624C70.2837 16.6436 70.3252 16.6558 70.3691 16.6606C70.418 16.6606 70.4644 16.6606 70.5083 16.6606H73.46C73.9482 16.6606 74.3633 16.7485 74.7051 16.9243C75.0469 17.1001 75.3228 17.3223 75.5327 17.5908C75.7427 17.8545 75.894 18.1426 75.9868 18.4551C76.0845 18.7676 76.1333 19.0581 76.1333 19.3267Z" fill="white"/>
<path fill-rule="evenodd" clip-rule="evenodd" d="M15.484 0.750439C16.0596 1.16331 16.6261 1.66292 16.743 1.86083C16.8602 2.059 18.748 4.19584 20.9384 6.60946C24.7997 10.8643 24.9845 11.0271 27.0061 11.9536C29.2494 12.8889 29.0993 12.9621 29.1743 13.1086C29.6998 13.6212 29.4483 15.6259 29.6932 19.5877L30 24.5482L28.5187 26.7741L27.0374 29H16.4288H5.81987C5.81987 29 5.90504 28.9519 3.16565 27.4747C0.42625 25.9975 0.214397 25.7357 0.156328 23.2455C0.156328 23.2455 -0.174234 21.9697 0.126007 21.9431C0.426249 21.9165 2.50273 20.7017 2.50273 20.7017L4.87945 19.4605L5.08449 18.0614C5.61482 14.4407 5.15387 14.9584 9.62776 12.9569C11.8154 11.9783 13.7232 11.0574 13.8673 10.9106C14.0975 10.6758 12.809 11.1912 10.5954 12.2189C10.2061 12.3998 9.84334 12.5003 9.78938 12.4425C9.65423 12.2983 6.86563 2.6881 6.93397 2.60186C6.96429 2.56396 7.39878 2.67843 7.89956 2.85625C8.58072 3.09842 9.4055 3.91678 11.173 6.10526C12.4726 7.71425 13.6407 9.06886 13.7684 9.11541C13.9018 9.164 14.0009 7.23677 14.0009 4.60006C14.0009 2.06994 14.0991 0 14.2193 0C14.3393 0 14.9085 0.337824 15.484 0.750439ZM10.3287 17.7218C9.99288 17.8139 9.91323 17.9973 10.0342 18.4C10.2629 19.1604 10.8822 20.0965 11.1563 20.0965C11.3768 20.0965 13.2301 17.6946 13.2301 17.4092C13.2301 17.2662 11.1866 17.4862 10.3287 17.7218Z" fill="white"/>
</svg>
