<svg width="485" height="501" viewBox="0 0 485 501" fill="none" xmlns="http://www.w3.org/2000/svg">
<g clip-path="url(#clip0_104_580)">
<path d="M251.008 0C389.636 0 198.286 163.906 320.652 250.5C443.019 337.093 389.636 500.999 251.008 500.999C112.38 500.999 0 388.847 0 250.5C0 112.152 112.38 0 251.008 0Z" fill="url(#paint0_linear_104_580)"/>
<path opacity="0.3" d="M137.992 501C-0.635925 501 190.714 337.094 68.3476 250.5C-54.0189 163.907 -0.635925 0.000793457 137.992 0.000793457C276.62 0.000793457 389 112.153 389 250.5C389 388.848 276.62 501 137.992 501Z" fill="url(#paint1_linear_104_580)"/>
</g>
<path d="M481.162 287.75C483.282 287.75 485 286.015 485 283.875C485 281.735 483.282 280 481.162 280C479.043 280 477.324 281.735 477.324 283.875C477.324 286.015 479.043 287.75 481.162 287.75Z" fill="#00909E"/>
<path d="M458.135 287.75C460.255 287.75 461.973 286.015 461.973 283.875C461.973 281.735 460.255 280 458.135 280C456.016 280 454.297 281.735 454.297 283.875C454.297 286.015 456.016 287.75 458.135 287.75Z" fill="#00909E"/>
<path d="M435.108 287.75C437.228 287.75 438.946 286.015 438.946 283.875C438.946 281.735 437.228 280 435.108 280C432.989 280 431.27 281.735 431.27 283.875C431.27 286.015 432.989 287.75 435.108 287.75Z" fill="#00909E"/>
<path d="M412.081 287.75C414.201 287.75 415.919 286.015 415.919 283.875C415.919 281.735 414.201 280 412.081 280C409.962 280 408.243 281.735 408.243 283.875C408.243 286.015 409.962 287.75 412.081 287.75Z" fill="#00909E"/>
<path d="M389.054 287.75C391.174 287.75 392.892 286.015 392.892 283.875C392.892 281.735 391.174 280 389.054 280C386.934 280 385.216 281.735 385.216 283.875C385.216 286.015 386.934 287.75 389.054 287.75Z" fill="#00909E"/>
<path d="M366.027 287.75C368.147 287.75 369.865 286.015 369.865 283.875C369.865 281.735 368.147 280 366.027 280C363.907 280 362.189 281.735 362.189 283.875C362.189 286.015 363.907 287.75 366.027 287.75Z" fill="#00909E"/>
<path d="M343 287.75C345.12 287.75 346.838 286.015 346.838 283.875C346.838 281.735 345.12 280 343 280C340.88 280 339.162 281.735 339.162 283.875C339.162 286.015 340.88 287.75 343 287.75Z" fill="#00909E"/>
<path d="M319.973 287.75C322.093 287.75 323.811 286.015 323.811 283.875C323.811 281.735 322.093 280 319.973 280C317.853 280 316.135 281.735 316.135 283.875C316.135 286.015 317.853 287.75 319.973 287.75Z" fill="#00909E"/>
<path d="M296.946 287.75C299.066 287.75 300.784 286.015 300.784 283.875C300.784 281.735 299.066 280 296.946 280C294.826 280 293.108 281.735 293.108 283.875C293.108 286.015 294.826 287.75 296.946 287.75Z" fill="#00909E"/>
<path d="M273.919 287.75C276.038 287.75 277.757 286.015 277.757 283.875C277.757 281.735 276.038 280 273.919 280C271.799 280 270.081 281.735 270.081 283.875C270.081 286.015 271.799 287.75 273.919 287.75Z" fill="#00909E"/>
<path d="M250.892 287.75C253.011 287.75 254.73 286.015 254.73 283.875C254.73 281.735 253.011 280 250.892 280C248.772 280 247.054 281.735 247.054 283.875C247.054 286.015 248.772 287.75 250.892 287.75Z" fill="#00909E"/>
<path d="M227.865 287.75C229.984 287.75 231.703 286.015 231.703 283.875C231.703 281.735 229.984 280 227.865 280C225.745 280 224.027 281.735 224.027 283.875C224.027 286.015 225.745 287.75 227.865 287.75Z" fill="#00909E"/>
<path d="M204.838 287.75C206.957 287.75 208.676 286.015 208.676 283.875C208.676 281.735 206.957 280 204.838 280C202.718 280 201 281.735 201 283.875C201 286.015 202.718 287.75 204.838 287.75Z" fill="#00909E"/>
<path d="M481.162 311C483.282 311 485 309.265 485 307.125C485 304.985 483.282 303.25 481.162 303.25C479.043 303.25 477.324 304.985 477.324 307.125C477.324 309.265 479.043 311 481.162 311Z" fill="#00909E"/>
<path d="M458.135 311C460.255 311 461.973 309.265 461.973 307.125C461.973 304.985 460.255 303.25 458.135 303.25C456.016 303.25 454.297 304.985 454.297 307.125C454.297 309.265 456.016 311 458.135 311Z" fill="#00909E"/>
<path d="M435.108 311C437.228 311 438.946 309.265 438.946 307.125C438.946 304.985 437.228 303.25 435.108 303.25C432.989 303.25 431.27 304.985 431.27 307.125C431.27 309.265 432.989 311 435.108 311Z" fill="#00909E"/>
<path d="M412.081 311C414.201 311 415.919 309.265 415.919 307.125C415.919 304.985 414.201 303.25 412.081 303.25C409.962 303.25 408.243 304.985 408.243 307.125C408.243 309.265 409.962 311 412.081 311Z" fill="#00909E"/>
<path d="M389.054 311C391.174 311 392.892 309.265 392.892 307.125C392.892 304.985 391.174 303.25 389.054 303.25C386.934 303.25 385.216 304.985 385.216 307.125C385.216 309.265 386.934 311 389.054 311Z" fill="#00909E"/>
<path d="M366.027 311C368.147 311 369.865 309.265 369.865 307.125C369.865 304.985 368.147 303.25 366.027 303.25C363.907 303.25 362.189 304.985 362.189 307.125C362.189 309.265 363.907 311 366.027 311Z" fill="#00909E"/>
<path d="M343 311C345.12 311 346.838 309.265 346.838 307.125C346.838 304.985 345.12 303.25 343 303.25C340.88 303.25 339.162 304.985 339.162 307.125C339.162 309.265 340.88 311 343 311Z" fill="#00909E"/>
<path d="M319.973 311C322.093 311 323.811 309.265 323.811 307.125C323.811 304.985 322.093 303.25 319.973 303.25C317.853 303.25 316.135 304.985 316.135 307.125C316.135 309.265 317.853 311 319.973 311Z" fill="#00909E"/>
<path d="M296.946 311C299.066 311 300.784 309.265 300.784 307.125C300.784 304.985 299.066 303.25 296.946 303.25C294.826 303.25 293.108 304.985 293.108 307.125C293.108 309.265 294.826 311 296.946 311Z" fill="#00909E"/>
<path d="M273.919 311C276.038 311 277.757 309.265 277.757 307.125C277.757 304.985 276.038 303.25 273.919 303.25C271.799 303.25 270.081 304.985 270.081 307.125C270.081 309.265 271.799 311 273.919 311Z" fill="#00909E"/>
<path d="M250.892 311C253.011 311 254.73 309.265 254.73 307.125C254.73 304.985 253.011 303.25 250.892 303.25C248.772 303.25 247.054 304.985 247.054 307.125C247.054 309.265 248.772 311 250.892 311Z" fill="#00909E"/>
<path d="M227.865 311C229.984 311 231.703 309.265 231.703 307.125C231.703 304.985 229.984 303.25 227.865 303.25C225.745 303.25 224.027 304.985 224.027 307.125C224.027 309.265 225.745 311 227.865 311Z" fill="#00909E"/>
<path d="M204.838 311C206.957 311 208.676 309.265 208.676 307.125C208.676 304.985 206.957 303.25 204.838 303.25C202.718 303.25 201 304.985 201 307.125C201 309.265 202.718 311 204.838 311Z" fill="#00909E"/>
<path d="M481.162 334.25C483.282 334.25 485 332.515 485 330.375C485 328.235 483.282 326.5 481.162 326.5C479.043 326.5 477.324 328.235 477.324 330.375C477.324 332.515 479.043 334.25 481.162 334.25Z" fill="url(#paint2_linear_104_580)"/>
<path d="M458.135 334.25C460.255 334.25 461.973 332.515 461.973 330.375C461.973 328.235 460.255 326.5 458.135 326.5C456.016 326.5 454.297 328.235 454.297 330.375C454.297 332.515 456.016 334.25 458.135 334.25Z" fill="url(#paint3_linear_104_580)"/>
<path d="M435.108 334.25C437.228 334.25 438.946 332.515 438.946 330.375C438.946 328.235 437.228 326.5 435.108 326.5C432.989 326.5 431.27 328.235 431.27 330.375C431.27 332.515 432.989 334.25 435.108 334.25Z" fill="url(#paint4_linear_104_580)"/>
<path d="M412.081 334.25C414.201 334.25 415.919 332.515 415.919 330.375C415.919 328.235 414.201 326.5 412.081 326.5C409.962 326.5 408.243 328.235 408.243 330.375C408.243 332.515 409.962 334.25 412.081 334.25Z" fill="url(#paint5_linear_104_580)"/>
<path d="M389.054 334.25C391.174 334.25 392.892 332.515 392.892 330.375C392.892 328.235 391.174 326.5 389.054 326.5C386.934 326.5 385.216 328.235 385.216 330.375C385.216 332.515 386.934 334.25 389.054 334.25Z" fill="url(#paint6_linear_104_580)"/>
<path d="M366.027 334.25C368.147 334.25 369.865 332.515 369.865 330.375C369.865 328.235 368.147 326.5 366.027 326.5C363.907 326.5 362.189 328.235 362.189 330.375C362.189 332.515 363.907 334.25 366.027 334.25Z" fill="url(#paint7_linear_104_580)"/>
<path d="M343 334.25C345.12 334.25 346.838 332.515 346.838 330.375C346.838 328.235 345.12 326.5 343 326.5C340.88 326.5 339.162 328.235 339.162 330.375C339.162 332.515 340.88 334.25 343 334.25Z" fill="white"/>
<path d="M319.973 334.25C322.093 334.25 323.811 332.515 323.811 330.375C323.811 328.235 322.093 326.5 319.973 326.5C317.853 326.5 316.135 328.235 316.135 330.375C316.135 332.515 317.853 334.25 319.973 334.25Z" fill="white"/>
<path d="M296.946 334.25C299.066 334.25 300.784 332.515 300.784 330.375C300.784 328.235 299.066 326.5 296.946 326.5C294.826 326.5 293.108 328.235 293.108 330.375C293.108 332.515 294.826 334.25 296.946 334.25Z" fill="white"/>
<path d="M273.919 334.25C276.038 334.25 277.757 332.515 277.757 330.375C277.757 328.235 276.038 326.5 273.919 326.5C271.799 326.5 270.081 328.235 270.081 330.375C270.081 332.515 271.799 334.25 273.919 334.25Z" fill="white"/>
<path d="M250.892 334.25C253.011 334.25 254.73 332.515 254.73 330.375C254.73 328.235 253.011 326.5 250.892 326.5C248.772 326.5 247.054 328.235 247.054 330.375C247.054 332.515 248.772 334.25 250.892 334.25Z" fill="white"/>
<path d="M227.865 334.25C229.984 334.25 231.703 332.515 231.703 330.375C231.703 328.235 229.984 326.5 227.865 326.5C225.745 326.5 224.027 328.235 224.027 330.375C224.027 332.515 225.745 334.25 227.865 334.25Z" fill="white"/>
<path d="M204.838 334.25C206.957 334.25 208.676 332.515 208.676 330.375C208.676 328.235 206.957 326.5 204.838 326.5C202.718 326.5 201 328.235 201 330.375C201 332.515 202.718 334.25 204.838 334.25Z" fill="white"/>
<path d="M481.162 357.5C483.282 357.5 485 355.765 485 353.625C485 351.485 483.282 349.75 481.162 349.75C479.043 349.75 477.324 351.485 477.324 353.625C477.324 355.765 479.043 357.5 481.162 357.5Z" fill="url(#paint8_linear_104_580)"/>
<path d="M458.135 357.5C460.255 357.5 461.973 355.765 461.973 353.625C461.973 351.485 460.255 349.75 458.135 349.75C456.016 349.75 454.297 351.485 454.297 353.625C454.297 355.765 456.016 357.5 458.135 357.5Z" fill="url(#paint9_linear_104_580)"/>
<path d="M435.108 357.5C437.228 357.5 438.946 355.765 438.946 353.625C438.946 351.485 437.228 349.75 435.108 349.75C432.989 349.75 431.27 351.485 431.27 353.625C431.27 355.765 432.989 357.5 435.108 357.5Z" fill="url(#paint10_linear_104_580)"/>
<path d="M412.081 357.5C414.201 357.5 415.919 355.765 415.919 353.625C415.919 351.485 414.201 349.75 412.081 349.75C409.962 349.75 408.243 351.485 408.243 353.625C408.243 355.765 409.962 357.5 412.081 357.5Z" fill="url(#paint11_linear_104_580)"/>
<path d="M389.054 357.5C391.174 357.5 392.892 355.765 392.892 353.625C392.892 351.485 391.174 349.75 389.054 349.75C386.934 349.75 385.216 351.485 385.216 353.625C385.216 355.765 386.934 357.5 389.054 357.5Z" fill="url(#paint12_linear_104_580)"/>
<path d="M366.027 357.5C368.147 357.5 369.865 355.765 369.865 353.625C369.865 351.485 368.147 349.75 366.027 349.75C363.907 349.75 362.189 351.485 362.189 353.625C362.189 355.765 363.907 357.5 366.027 357.5Z" fill="url(#paint13_linear_104_580)"/>
<path d="M343 357.5C345.12 357.5 346.838 355.765 346.838 353.625C346.838 351.485 345.12 349.75 343 349.75C340.88 349.75 339.162 351.485 339.162 353.625C339.162 355.765 340.88 357.5 343 357.5Z" fill="white"/>
<path d="M319.973 357.5C322.093 357.5 323.811 355.765 323.811 353.625C323.811 351.485 322.093 349.75 319.973 349.75C317.853 349.75 316.135 351.485 316.135 353.625C316.135 355.765 317.853 357.5 319.973 357.5Z" fill="white"/>
<path d="M296.946 357.5C299.066 357.5 300.784 355.765 300.784 353.625C300.784 351.485 299.066 349.75 296.946 349.75C294.826 349.75 293.108 351.485 293.108 353.625C293.108 355.765 294.826 357.5 296.946 357.5Z" fill="white"/>
<path d="M273.919 357.5C276.038 357.5 277.757 355.765 277.757 353.625C277.757 351.485 276.038 349.75 273.919 349.75C271.799 349.75 270.081 351.485 270.081 353.625C270.081 355.765 271.799 357.5 273.919 357.5Z" fill="white"/>
<path d="M250.892 357.5C253.011 357.5 254.73 355.765 254.73 353.625C254.73 351.485 253.011 349.75 250.892 349.75C248.772 349.75 247.054 351.485 247.054 353.625C247.054 355.765 248.772 357.5 250.892 357.5Z" fill="white"/>
<path d="M227.865 357.5C229.984 357.5 231.703 355.765 231.703 353.625C231.703 351.485 229.984 349.75 227.865 349.75C225.745 349.75 224.027 351.485 224.027 353.625C224.027 355.765 225.745 357.5 227.865 357.5Z" fill="white"/>
<path d="M204.838 357.5C206.957 357.5 208.676 355.765 208.676 353.625C208.676 351.485 206.957 349.75 204.838 349.75C202.718 349.75 201 351.485 201 353.625C201 355.765 202.718 357.5 204.838 357.5Z" fill="white"/>
<path d="M481.162 380.75C483.282 380.75 485 379.015 485 376.875C485 374.735 483.282 373 481.162 373C479.043 373 477.324 374.735 477.324 376.875C477.324 379.015 479.043 380.75 481.162 380.75Z" fill="url(#paint14_linear_104_580)"/>
<path d="M458.135 380.75C460.255 380.75 461.973 379.015 461.973 376.875C461.973 374.735 460.255 373 458.135 373C456.016 373 454.297 374.735 454.297 376.875C454.297 379.015 456.016 380.75 458.135 380.75Z" fill="url(#paint15_linear_104_580)"/>
<path d="M435.108 380.75C437.228 380.75 438.946 379.015 438.946 376.875C438.946 374.735 437.228 373 435.108 373C432.989 373 431.27 374.735 431.27 376.875C431.27 379.015 432.989 380.75 435.108 380.75Z" fill="url(#paint16_linear_104_580)"/>
<path d="M412.081 380.75C414.201 380.75 415.919 379.015 415.919 376.875C415.919 374.735 414.201 373 412.081 373C409.962 373 408.243 374.735 408.243 376.875C408.243 379.015 409.962 380.75 412.081 380.75Z" fill="url(#paint17_linear_104_580)"/>
<path d="M389.054 380.75C391.174 380.75 392.892 379.015 392.892 376.875C392.892 374.735 391.174 373 389.054 373C386.934 373 385.216 374.735 385.216 376.875C385.216 379.015 386.934 380.75 389.054 380.75Z" fill="url(#paint18_linear_104_580)"/>
<path d="M366.027 380.75C368.147 380.75 369.865 379.015 369.865 376.875C369.865 374.735 368.147 373 366.027 373C363.907 373 362.189 374.735 362.189 376.875C362.189 379.015 363.907 380.75 366.027 380.75Z" fill="url(#paint19_linear_104_580)"/>
<path d="M343 380.75C345.12 380.75 346.838 379.015 346.838 376.875C346.838 374.735 345.12 373 343 373C340.88 373 339.162 374.735 339.162 376.875C339.162 379.015 340.88 380.75 343 380.75Z" fill="url(#paint20_linear_104_580)"/>
<path d="M319.973 380.75C322.093 380.75 323.811 379.015 323.811 376.875C323.811 374.735 322.093 373 319.973 373C317.853 373 316.135 374.735 316.135 376.875C316.135 379.015 317.853 380.75 319.973 380.75Z" fill="white"/>
<path d="M296.946 380.75C299.066 380.75 300.784 379.015 300.784 376.875C300.784 374.735 299.066 373 296.946 373C294.826 373 293.108 374.735 293.108 376.875C293.108 379.015 294.826 380.75 296.946 380.75Z" fill="white"/>
<path d="M273.919 380.75C276.038 380.75 277.757 379.015 277.757 376.875C277.757 374.735 276.038 373 273.919 373C271.799 373 270.081 374.735 270.081 376.875C270.081 379.015 271.799 380.75 273.919 380.75Z" fill="white"/>
<path d="M250.892 380.75C253.011 380.75 254.73 379.015 254.73 376.875C254.73 374.735 253.011 373 250.892 373C248.772 373 247.054 374.735 247.054 376.875C247.054 379.015 248.772 380.75 250.892 380.75Z" fill="white"/>
<path d="M227.865 380.75C229.984 380.75 231.703 379.015 231.703 376.875C231.703 374.735 229.984 373 227.865 373C225.745 373 224.027 374.735 224.027 376.875C224.027 379.015 225.745 380.75 227.865 380.75Z" fill="white"/>
<path d="M204.838 380.75C206.957 380.75 208.676 379.015 208.676 376.875C208.676 374.735 206.957 373 204.838 373C202.718 373 201 374.735 201 376.875C201 379.015 202.718 380.75 204.838 380.75Z" fill="white"/>
<path d="M481.162 404C483.282 404 485 402.265 485 400.125C485 397.985 483.282 396.25 481.162 396.25C479.043 396.25 477.324 397.985 477.324 400.125C477.324 402.265 479.043 404 481.162 404Z" fill="url(#paint21_linear_104_580)"/>
<path d="M458.135 404C460.255 404 461.973 402.265 461.973 400.125C461.973 397.985 460.255 396.25 458.135 396.25C456.016 396.25 454.297 397.985 454.297 400.125C454.297 402.265 456.016 404 458.135 404Z" fill="url(#paint22_linear_104_580)"/>
<path d="M435.108 404C437.228 404 438.946 402.265 438.946 400.125C438.946 397.985 437.228 396.25 435.108 396.25C432.989 396.25 431.27 397.985 431.27 400.125C431.27 402.265 432.989 404 435.108 404Z" fill="url(#paint23_linear_104_580)"/>
<path d="M412.081 404C414.201 404 415.919 402.265 415.919 400.125C415.919 397.985 414.201 396.25 412.081 396.25C409.962 396.25 408.243 397.985 408.243 400.125C408.243 402.265 409.962 404 412.081 404Z" fill="url(#paint24_linear_104_580)"/>
<path d="M389.054 404C391.174 404 392.892 402.265 392.892 400.125C392.892 397.985 391.174 396.25 389.054 396.25C386.934 396.25 385.216 397.985 385.216 400.125C385.216 402.265 386.934 404 389.054 404Z" fill="url(#paint25_linear_104_580)"/>
<path d="M366.027 404C368.147 404 369.865 402.265 369.865 400.125C369.865 397.985 368.147 396.25 366.027 396.25C363.907 396.25 362.189 397.985 362.189 400.125C362.189 402.265 363.907 404 366.027 404Z" fill="url(#paint26_linear_104_580)"/>
<path d="M343 404C345.12 404 346.838 402.265 346.838 400.125C346.838 397.985 345.12 396.25 343 396.25C340.88 396.25 339.162 397.985 339.162 400.125C339.162 402.265 340.88 404 343 404Z" fill="url(#paint27_linear_104_580)"/>
<path d="M319.973 404C322.093 404 323.811 402.265 323.811 400.125C323.811 397.985 322.093 396.25 319.973 396.25C317.853 396.25 316.135 397.985 316.135 400.125C316.135 402.265 317.853 404 319.973 404Z" fill="url(#paint28_linear_104_580)"/>
<path d="M296.946 404C299.066 404 300.784 402.265 300.784 400.125C300.784 397.985 299.066 396.25 296.946 396.25C294.826 396.25 293.108 397.985 293.108 400.125C293.108 402.265 294.826 404 296.946 404Z" fill="white"/>
<path d="M273.919 404C276.038 404 277.757 402.265 277.757 400.125C277.757 397.985 276.038 396.25 273.919 396.25C271.799 396.25 270.081 397.985 270.081 400.125C270.081 402.265 271.799 404 273.919 404Z" fill="white"/>
<path d="M250.892 404C253.011 404 254.73 402.265 254.73 400.125C254.73 397.985 253.011 396.25 250.892 396.25C248.772 396.25 247.054 397.985 247.054 400.125C247.054 402.265 248.772 404 250.892 404Z" fill="white"/>
<path d="M227.865 404C229.984 404 231.703 402.265 231.703 400.125C231.703 397.985 229.984 396.25 227.865 396.25C225.745 396.25 224.027 397.985 224.027 400.125C224.027 402.265 225.745 404 227.865 404Z" fill="white"/>
<path d="M204.838 404C206.957 404 208.676 402.265 208.676 400.125C208.676 397.985 206.957 396.25 204.838 396.25C202.718 396.25 201 397.985 201 400.125C201 402.265 202.718 404 204.838 404Z" fill="white"/>
<defs>
<linearGradient id="paint0_linear_104_580" x1="194.5" y1="0" x2="194.5" y2="500.999" gradientUnits="userSpaceOnUse">
<stop stop-color="#8772FF"/>
<stop offset="1" stop-color="#6246FF"/>
</linearGradient>
<linearGradient id="paint1_linear_104_580" x1="194.5" y1="501" x2="194.5" y2="0.000793457" gradientUnits="userSpaceOnUse">
<stop stop-color="#DDDFF9"/>
<stop offset="1" stop-color="#5864FF"/>
</linearGradient>
<linearGradient id="paint2_linear_104_580" x1="343" y1="280" x2="343" y2="404" gradientUnits="userSpaceOnUse">
<stop stop-color="#8772FF"/>
<stop offset="1" stop-color="#6246FF"/>
</linearGradient>
<linearGradient id="paint3_linear_104_580" x1="343" y1="280" x2="343" y2="404" gradientUnits="userSpaceOnUse">
<stop stop-color="#8772FF"/>
<stop offset="1" stop-color="#6246FF"/>
</linearGradient>
<linearGradient id="paint4_linear_104_580" x1="343" y1="280" x2="343" y2="404" gradientUnits="userSpaceOnUse">
<stop stop-color="#8772FF"/>
<stop offset="1" stop-color="#6246FF"/>
</linearGradient>
<linearGradient id="paint5_linear_104_580" x1="343" y1="280" x2="343" y2="404" gradientUnits="userSpaceOnUse">
<stop stop-color="#8772FF"/>
<stop offset="1" stop-color="#6246FF"/>
</linearGradient>
<linearGradient id="paint6_linear_104_580" x1="343" y1="280" x2="343" y2="404" gradientUnits="userSpaceOnUse">
<stop stop-color="#8772FF"/>
<stop offset="1" stop-color="#6246FF"/>
</linearGradient>
<linearGradient id="paint7_linear_104_580" x1="343" y1="280" x2="343" y2="404" gradientUnits="userSpaceOnUse">
<stop stop-color="#8772FF"/>
<stop offset="1" stop-color="#6246FF"/>
</linearGradient>
<linearGradient id="paint8_linear_104_580" x1="343" y1="280" x2="343" y2="404" gradientUnits="userSpaceOnUse">
<stop stop-color="#8772FF"/>
<stop offset="1" stop-color="#6246FF"/>
</linearGradient>
<linearGradient id="paint9_linear_104_580" x1="343" y1="280" x2="343" y2="404" gradientUnits="userSpaceOnUse">
<stop stop-color="#8772FF"/>
<stop offset="1" stop-color="#6246FF"/>
</linearGradient>
<linearGradient id="paint10_linear_104_580" x1="343" y1="280" x2="343" y2="404" gradientUnits="userSpaceOnUse">
<stop stop-color="#8772FF"/>
<stop offset="1" stop-color="#6246FF"/>
</linearGradient>
<linearGradient id="paint11_linear_104_580" x1="343" y1="280" x2="343" y2="404" gradientUnits="userSpaceOnUse">
<stop stop-color="#8772FF"/>
<stop offset="1" stop-color="#6246FF"/>
</linearGradient>
<linearGradient id="paint12_linear_104_580" x1="343" y1="280" x2="343" y2="404" gradientUnits="userSpaceOnUse">
<stop stop-color="#8772FF"/>
<stop offset="1" stop-color="#6246FF"/>
</linearGradient>
<linearGradient id="paint13_linear_104_580" x1="343" y1="280" x2="343" y2="404" gradientUnits="userSpaceOnUse">
<stop stop-color="#8772FF"/>
<stop offset="1" stop-color="#6246FF"/>
</linearGradient>
<linearGradient id="paint14_linear_104_580" x1="343" y1="280" x2="343" y2="404" gradientUnits="userSpaceOnUse">
<stop stop-color="#8772FF"/>
<stop offset="1" stop-color="#6246FF"/>
</linearGradient>
<linearGradient id="paint15_linear_104_580" x1="343" y1="280" x2="343" y2="404" gradientUnits="userSpaceOnUse">
<stop stop-color="#8772FF"/>
<stop offset="1" stop-color="#6246FF"/>
</linearGradient>
<linearGradient id="paint16_linear_104_580" x1="343" y1="280" x2="343" y2="404" gradientUnits="userSpaceOnUse">
<stop stop-color="#8772FF"/>
<stop offset="1" stop-color="#6246FF"/>
</linearGradient>
<linearGradient id="paint17_linear_104_580" x1="343" y1="280" x2="343" y2="404" gradientUnits="userSpaceOnUse">
<stop stop-color="#8772FF"/>
<stop offset="1" stop-color="#6246FF"/>
</linearGradient>
<linearGradient id="paint18_linear_104_580" x1="343" y1="280" x2="343" y2="404" gradientUnits="userSpaceOnUse">
<stop stop-color="#8772FF"/>
<stop offset="1" stop-color="#6246FF"/>
</linearGradient>
<linearGradient id="paint19_linear_104_580" x1="343" y1="280" x2="343" y2="404" gradientUnits="userSpaceOnUse">
<stop stop-color="#8772FF"/>
<stop offset="1" stop-color="#6246FF"/>
</linearGradient>
<linearGradient id="paint20_linear_104_580" x1="343" y1="280" x2="343" y2="404" gradientUnits="userSpaceOnUse">
<stop stop-color="#8772FF"/>
<stop offset="1" stop-color="#6246FF"/>
</linearGradient>
<linearGradient id="paint21_linear_104_580" x1="343" y1="280" x2="343" y2="404" gradientUnits="userSpaceOnUse">
<stop stop-color="#8772FF"/>
<stop offset="1" stop-color="#6246FF"/>
</linearGradient>
<linearGradient id="paint22_linear_104_580" x1="343" y1="280" x2="343" y2="404" gradientUnits="userSpaceOnUse">
<stop stop-color="#8772FF"/>
<stop offset="1" stop-color="#6246FF"/>
</linearGradient>
<linearGradient id="paint23_linear_104_580" x1="343" y1="280" x2="343" y2="404" gradientUnits="userSpaceOnUse">
<stop stop-color="#8772FF"/>
<stop offset="1" stop-color="#6246FF"/>
</linearGradient>
<linearGradient id="paint24_linear_104_580" x1="343" y1="280" x2="343" y2="404" gradientUnits="userSpaceOnUse">
<stop stop-color="#8772FF"/>
<stop offset="1" stop-color="#6246FF"/>
</linearGradient>
<linearGradient id="paint25_linear_104_580" x1="343" y1="280" x2="343" y2="404" gradientUnits="userSpaceOnUse">
<stop stop-color="#8772FF"/>
<stop offset="1" stop-color="#6246FF"/>
</linearGradient>
<linearGradient id="paint26_linear_104_580" x1="343" y1="280" x2="343" y2="404" gradientUnits="userSpaceOnUse">
<stop stop-color="#8772FF"/>
<stop offset="1" stop-color="#6246FF"/>
</linearGradient>
<linearGradient id="paint27_linear_104_580" x1="343" y1="280" x2="343" y2="404" gradientUnits="userSpaceOnUse">
<stop stop-color="#8772FF"/>
<stop offset="1" stop-color="#6246FF"/>
</linearGradient>
<linearGradient id="paint28_linear_104_580" x1="343" y1="280" x2="343" y2="404" gradientUnits="userSpaceOnUse">
<stop stop-color="#8772FF"/>
<stop offset="1" stop-color="#6246FF"/>
</linearGradient>
<clipPath id="clip0_104_580">
<rect width="389" height="501" fill="white"/>
</clipPath>
</defs>
</svg>
