<svg width="267" height="265" viewBox="0 0 267 265" fill="none" xmlns="http://www.w3.org/2000/svg">
<path fill-rule="evenodd" clip-rule="evenodd" d="M137.808 6.85745C142.93 10.6302 147.972 15.1956 149.013 17.0042C150.056 18.815 166.857 38.3413 186.352 60.3967C220.718 99.2773 222.362 100.765 240.354 109.231C260.32 117.778 258.984 118.447 259.652 119.785C264.328 124.47 262.09 142.788 264.27 178.991L267 224.32L253.817 244.66L240.633 265H146.216H51.7968C51.7968 265 52.5549 264.56 28.1743 251.062C3.79364 237.563 1.90814 235.171 1.39133 212.416C1.39133 212.416 -1.55066 200.757 1.12149 200.514C3.79364 200.271 22.2743 189.17 22.2743 189.17L43.4272 177.829L45.252 165.044C49.972 131.958 45.8695 136.689 85.6871 118.399C105.157 109.457 122.136 101.042 123.419 99.7004C125.468 97.5548 114 102.264 94.2991 111.656C90.8347 113.308 87.6057 114.227 87.1255 113.699C85.9226 112.381 61.1041 24.5636 61.7124 23.7756C61.9822 23.4292 65.8492 24.4753 70.3061 26.1002C76.3684 28.3131 83.709 35.7912 99.4398 55.7894C111.006 70.4923 121.402 82.8705 122.539 83.2959C123.726 83.7399 124.608 66.1291 124.608 42.035C124.608 18.9149 125.482 0 126.552 0C127.62 0 132.685 3.08701 137.808 6.85745ZM91.9255 161.94C88.9366 162.782 88.2277 164.458 89.3048 168.138C91.34 175.086 96.8512 183.64 99.2912 183.64C101.253 183.64 117.748 161.692 117.748 159.084C117.748 157.777 99.5611 159.788 91.9255 161.94Z" fill="white"/>
</svg>
