<svg width="70" height="70" viewBox="0 0 70 70" fill="none" xmlns="http://www.w3.org/2000/svg">
  <path
    d="M26.2501 61.2498L14.5833 61.2495C11.3617 61.2495 8.75 58.6378 8.75 55.4162L8.75009 14.5835C8.75009 11.3618 11.3618 8.74963 14.5834 8.74963L55.4169 8.74974C58.6385 8.74974 61.2502 11.3614 61.2502 14.5831L61.2501 23.3335"
    stroke="white" stroke-width="3" stroke-linecap="round" stroke-linejoin="round" />
  <path fill-rule="evenodd" clip-rule="evenodd"
    d="M24.7917 49.7642C22.3754 49.7642 20.4167 47.8055 20.4167 45.3892C20.4167 42.973 22.3754 41.0142 24.7917 41.0142C27.2081 41.0142 29.1667 42.973 29.1667 45.3892C29.1667 47.8055 27.2081 49.7642 24.7917 49.7642Z"
    stroke="white" stroke-width="3" stroke-linecap="round" stroke-linejoin="round" />
  <path d="M20.4167 20.5975H43.7501" stroke="white" stroke-width="3" stroke-linecap="square" stroke-linejoin="round" />
  <path d="M20.4167 30.8058H35.0001" stroke="white" stroke-width="3" stroke-linecap="square" stroke-linejoin="round" />
  <path fill-rule="evenodd" clip-rule="evenodd"
    d="M39.375 59.7919V58.6077C39.3846 55.2387 42.1135 52.5099 45.4825 52.5002H55.1425C58.5115 52.5099 61.2404 55.2387 61.25 58.6077V59.7919C61.25 60.5973 60.5971 61.2502 59.7917 61.2502H40.8333C40.0279 61.2502 39.375 60.5973 39.375 59.7919Z"
    stroke="white" stroke-width="3" stroke-linecap="round" stroke-linejoin="round" />
  <path fill-rule="evenodd" clip-rule="evenodd"
    d="M44.479 39.3521C44.492 36.1334 47.1093 33.5335 50.328 33.5421C53.5465 33.5507 56.1501 36.1645 56.1457 39.3832C56.1415 42.6017 53.5311 45.2088 50.3125 45.2088C48.7613 45.2088 47.2741 44.5909 46.1795 43.4919C45.0848 42.3929 44.4729 40.9032 44.479 39.3521Z"
    stroke="white" stroke-width="3" stroke-linecap="round" stroke-linejoin="round" />
</svg>