<svg width="80" height="80" viewBox="0 0 80 80" fill="none" xmlns="http://www.w3.org/2000/svg">
<path d="M46.8028 33.1975L38.4326 41.5677" stroke="#E1E1E6" stroke-width="4" stroke-linecap="square" stroke-linejoin="round"/>
<path fill-rule="evenodd" clip-rule="evenodd" d="M46.6694 19.9912V33.3301H60.0083L73.3472 19.9912L64.4535 15.546L60.0083 6.65234L46.6694 19.9912Z" stroke="#E1E1E6" stroke-width="4" stroke-linecap="round" stroke-linejoin="round"/>
<path d="M36.6653 13.2375C21.4536 14.1712 9.68801 26.9406 9.99996 42.1777C10.3119 57.4148 22.5903 69.6917 37.8274 70.002C53.0645 70.3122 65.8325 58.5452 66.7645 43.3335" stroke="url(#paint0_linear_99_807)" stroke-width="4" stroke-linecap="round" stroke-linejoin="round"/>
<path d="M54.0391 43.3348C53.1425 51.5452 46.0583 57.67 37.8045 57.3706C29.5507 57.0712 22.9288 50.4493 22.6294 42.1955C22.3301 33.9418 28.4548 26.8575 36.6652 25.9609" stroke="url(#paint1_linear_99_807)" stroke-width="4" stroke-linecap="round" stroke-linejoin="round"/>
<defs>
<linearGradient id="paint0_linear_99_807" x1="38.3792" y1="13.2375" x2="38.3792" y2="70.0079" gradientUnits="userSpaceOnUse">
<stop stop-color="#8257E5"/>
<stop offset="1" stop-color="#8257E5" stop-opacity="0.25"/>
</linearGradient>
<linearGradient id="paint1_linear_99_807" x1="53.9999" y1="57" x2="53.9999" y2="26" gradientUnits="userSpaceOnUse">
<stop stop-color="#04D361"/>
<stop offset="1" stop-color="#04D361" stop-opacity="0.25"/>
</linearGradient>
</defs>
</svg>
