<svg width="80" height="80" viewBox="0 0 80 80" fill="none" xmlns="http://www.w3.org/2000/svg">
<path d="M66.6669 33.3333V41.6666C66.6669 44.4281 64.4283 46.6666 61.6669 46.6666H18.3335C15.5721 46.6666 13.3335 44.4281 13.3335 41.6666V16.6667C13.3335 12.9848 16.3183 10 20.0002 10H30.0002" stroke="url(#paint0_linear_99_796)" stroke-width="4" stroke-linecap="round" stroke-linejoin="round"/>
<path fill-rule="evenodd" clip-rule="evenodd" d="M63.3304 70.0003H16.67C14.5784 70.0003 12.6081 69.0186 11.3485 67.3488C10.0889 65.679 9.68609 63.5148 10.2606 61.5037L13.8083 49.0847C14.2172 47.6536 15.5252 46.667 17.0135 46.667H62.9869C64.4752 46.667 65.7832 47.6537 66.192 49.0847L69.7398 61.5037C70.3143 63.5148 69.9115 65.679 68.6519 67.3488C67.3923 69.0186 65.422 70.0003 63.3304 70.0003Z" stroke="url(#paint1_linear_99_796)" stroke-width="4" stroke-linecap="round" stroke-linejoin="round"/>
<path d="M33.3335 60.0007H46.6668" stroke="#E1E1E6" stroke-width="4" stroke-linecap="square" stroke-linejoin="round"/>
<path d="M50.0001 23.3333L43.3335 16.6667L50.0001 10" stroke="#E1E1E6" stroke-width="4" stroke-linecap="square" stroke-linejoin="round"/>
<path d="M60 10L66.6667 16.6667L60 23.3333" stroke="#E1E1E6" stroke-width="4" stroke-linecap="square" stroke-linejoin="round"/>
<defs>
<linearGradient id="paint0_linear_99_796" x1="40.0002" y1="10" x2="40.0002" y2="46.6666" gradientUnits="userSpaceOnUse">
<stop stop-color="#8772FF"/>
<stop offset="1" stop-color="#6347FF" stop-opacity="0.25"/>
</linearGradient>
<linearGradient id="paint1_linear_99_796" x1="65.0001" y1="70.0003" x2="65.0001" y2="45" gradientUnits="userSpaceOnUse">
<stop stop-color="#04D361"/>
<stop offset="1" stop-color="#04D361" stop-opacity="0.25"/>
</linearGradient>
</defs>
</svg>
