<svg width="30" height="29" viewBox="0 0 30 29" fill="none" xmlns="http://www.w3.org/2000/svg">
<path fill-rule="evenodd" clip-rule="evenodd" d="M15.484 0.750439C16.0596 1.16331 16.6261 1.66292 16.743 1.86083C16.8602 2.059 18.748 4.19584 20.9384 6.60946C24.7997 10.8643 24.9845 11.0271 27.0061 11.9536C29.2494 12.8889 29.0993 12.9621 29.1743 13.1086C29.6998 13.6212 29.4483 15.6259 29.6932 19.5877L30 24.5482L28.5187 26.7741L27.0374 29H16.4288H5.81987C5.81987 29 5.90504 28.9519 3.16565 27.4747C0.42625 25.9975 0.214397 25.7357 0.156328 23.2455C0.156328 23.2455 -0.174234 21.9697 0.126007 21.9431C0.426249 21.9165 2.50273 20.7017 2.50273 20.7017L4.87945 19.4605L5.08449 18.0614C5.61482 14.4407 5.15387 14.9584 9.62776 12.9569C11.8154 11.9783 13.7232 11.0574 13.8673 10.9106C14.0975 10.6758 12.809 11.1912 10.5954 12.2189C10.2061 12.3998 9.84334 12.5003 9.78938 12.4425C9.65423 12.2983 6.86563 2.6881 6.93397 2.60186C6.96429 2.56396 7.39878 2.67843 7.89956 2.85625C8.58072 3.09842 9.4055 3.91678 11.173 6.10526C12.4726 7.71425 13.6407 9.06886 13.7684 9.11541C13.9018 9.164 14.0009 7.23677 14.0009 4.60006C14.0009 2.06994 14.0991 0 14.2193 0C14.3393 0 14.9085 0.337824 15.484 0.750439ZM10.3287 17.7218C9.99288 17.8139 9.91323 17.9973 10.0342 18.4C10.2629 19.1604 10.8822 20.0965 11.1563 20.0965C11.3768 20.0965 13.2301 17.6946 13.2301 17.4092C13.2301 17.2662 11.1866 17.4862 10.3287 17.7218Z" fill="white"/>
</svg>
